# xmcd
#
# Track frame offsets:
#	150
#	17383
#	40677
#	57500
#	77565
#	93677
#	108981
#	127422
#	143726
#	164264
#
# Disc length: 2392 seconds
#
# Revision: 0
# Processed by: cddbd v1.5.2PL0 Copyright (c) Steve Scherf et al.
# Submitted via: audiograbber 1.83.01
#
DISCID=8009560a
DTITLE=G. Squad - Besoin De Vous
DYEAR=1998
DGENRE=Variété Française
TTITLE0=Tout Est Dans Le Coeur
TTITLE1=Besoin De Vous (Long Version)
TTITLE2=Mélodie D'amour
TTITLE3=Kiss Me Tonight
TTITLE4=Le Télégramme
TTITLE5=J'te Donnerai Tout
TTITLE6=La Roue Tourne
TTITLE7=Don't Stop
TTITLE8=Combien De Larmes
TTITLE9=Ti Amo
EXTD=1998
EXTT0=
EXTT1=
EXTT2=
EXTT3=
EXTT4=
EXTT5=
EXTT6=
EXTT7=
EXTT8=
EXTT9=
PLAYORDER=
